# xmcd CD database file
#
# Track frame offsets:
#	150
#	12810
#	24323
#	39768
#	51892
#	64920
#	78895
#	91308
#	104800
#	118216
#	130581
#	145928
#	160365
#	174555
#	190819
#	203614
#	217292
#	230661
#	243101
#	254952
#	267347
#	279809
#	293892
#
# Disc length: 4057 seconds
#
# Revision: 0
# Processed by: cddbd v1.5.2PL0 Copyright (c) Steve Scherf et al.
# Submitted via: CDex 1.70beta2
#
DISCID=500fd717
DTITLE=Various Artist - Jazz Roads CD154 - Swing - Jack Teagarden Vol.1 (1934-35)
DYEAR=2006
DGENRE=Jazz
TTITLE0=Frankie Trumbauer And His Orchestra - Break It Down
TTITLE1=Frankie Trumbauer And His Orchestra - Juba Dance
TTITLE2=Paul Whiteman And His Orchestra - Fare-Thee-Well To Harlem
TTITLE3=Frankie Trumbauer And His Orchestra - China Boy
TTITLE4=Frankie Trumbauer And His Orchestra - Emaline
TTITLE5=Frankie Trumbauer And His Orchestra - In A Mist
TTITLE6=Frankie Trumbauer And His Orchestra - Long About Midnight
TTITLE7=Jack Teagarden - Fare-Thee-Well To Harlem
TTITLE8=Jack Teagarden - Ol' Pappy
TTITLE9=Paul Whiteman And His Orchestra - G' Blues
TTITLE10=Paul Whiteman And His Orchestra - Christmas Night In Harlem
TTITLE11=Benny Goodman And His Orchestra - I Ain't Lazy, I'm Just Dreaming
TTITLE12=Benny Goodman And His Orchestra - As Long As I Live
TTITLE13=Benny Goodman And His Orchestra - Moonglow
TTITLE14=Benny Goodman And His Orchestra - Breakfast Ball
TTITLE15=Jack Teagarden  - Junk Man
TTITLE16=Jack Teagarden  - Stars Fell On Alabama
TTITLE17=Jack Teagarden  - Your Guess Is Just As Good As Mine
TTITLE18=Paul Whiteman And His Orchestra - Nobody's Sweetheart Now
TTITLE19=Paul Whiteman And His Orchestra - Ain't Misbehavin'
TTITLE20=Paul Whiteman And His Orchestra - Darktown Strutters' Ball
TTITLE21=Paul Whiteman And His Orchestra - Farewell Blues
TTITLE22=Paul Whiteman And His Orchestra - Announcer's Blues
EXTD=YEAR: 2006
EXTT0=
EXTT1=
EXTT2=
EXTT3=
EXTT4=
EXTT5=
EXTT6=
EXTT7=
EXTT8=
EXTT9=
EXTT10=
EXTT11=
EXTT12=
EXTT13=
EXTT14=
EXTT15=
EXTT16=
EXTT17=
EXTT18=
EXTT19=
EXTT20=
EXTT21=
EXTT22=
PLAYORDER=
